<svg width="435" height="306" viewBox="0 0 435 306" fill="none" xmlns="http://www.w3.org/2000/svg">
<path d="M181.972 97.1414C192.985 127.168 203.525 156.959 216.95 185.859C216.95 171.794 216.951 157.73 216.949 143.665C216.949 141.999 217.05 140.322 216.9 138.668C216.549 134.806 218.028 133.224 222.064 133.543C226.371 133.883 230.733 133.853 235.053 133.631C238.95 133.431 240.401 134.922 240.347 138.824C240.197 149.653 240.47 160.49 240.238 171.316C240.15 175.44 241.483 176.883 245.627 176.807C257.121 176.597 268.622 176.804 280.118 176.694C304.118 176.464 323.882 162.268 330.415 139.147C337.381 114.49 334.768 91.4569 314.576 73.1386C306.32 65.6492 296.38 61.4662 285.109 61.1546C272.467 60.8051 259.818 60.6575 247.172 60.505C240.92 60.4296 240.238 61.1658 240.243 67.2345C240.251 77.566 240.121 87.9009 240.361 98.2271C240.464 102.633 239.241 104.742 234.461 104.366C230.154 104.027 225.798 104.18 221.469 104.298C218.327 104.384 216.845 103.102 216.847 99.9215C216.855 81.2585 216.867 62.5952 216.765 43.9327C216.745 40.1853 218.785 39.708 221.858 39.5645C238.671 38.7792 255.488 39.9493 272.288 39.4114C284.741 39.0126 296.808 40.1615 308.592 44.5407C335.079 54.3829 354.86 81.6601 356.471 109.86C357.332 124.935 356.213 139.564 349.77 153.286C336.999 180.481 314.796 194.778 285.385 197.106C268.67 198.429 251.769 197.486 234.952 197.426C222.965 197.382 210.992 198.519 198.987 197.654C196.053 197.443 194.45 196.557 193.467 193.767C189.65 182.933 185.496 172.213 181.842 161.325C180.579 157.562 178.803 155.994 174.754 156.041C157.094 156.25 139.432 156.268 121.771 156.173C118.296 156.154 116.822 157.625 115.741 160.732C112.021 171.424 107.944 181.992 104.196 192.676C102.785 196.698 100.51 198.6 96.08 198.282C91.6041 197.962 87.083 198.105 82.5889 198.258C78.2258 198.406 77.3914 196.758 78.9604 192.808C86.7053 173.307 94.2259 153.717 101.972 134.217C113.9 104.192 125.469 74.0309 136.539 43.6812C137.911 39.9202 139.449 37.7901 143.984 38.4527C147.556 38.9746 151.327 38.6929 154.939 38.2246C158.616 37.7479 160.353 39.0803 161.598 42.4811C168.234 60.6197 175.066 78.6866 181.972 97.1414ZM162.392 104.027C158.141 91.6948 153.889 79.363 149.637 67.0311C141.078 90.2567 131.948 112.797 123.91 136.17C140.756 136.17 156.553 136.17 173.313 136.17C169.568 125.146 166.107 114.959 162.392 104.027Z" fill="#73f9ebf0"/>
<path d="M64.9833 281.305C66.3867 292.276 65.3582 292.798 54.5621 291.985C29.7363 290.117 19.0329 268.619 18.8861 250.475C18.6866 225.817 18.8199 201.155 18.8047 176.495C18.8035 174.663 18.8312 172.825 18.7156 170.999C18.1067 161.374 14.2726 156.266 5.0058 153.704C1.75223 152.804 0.271519 151.212 0.877995 148.15C1.5448 144.783 -1.63287 140.211 3.78608 138.235C16.9413 133.437 18.7167 130.847 18.7269 116.716C18.7452 91.3889 18.5981 66.06 18.8977 40.7364C19.0644 26.6544 24.2308 14.7473 36.3835 6.64689C43.4633 1.92783 51.3744 0.52256 59.7409 0.943764C62.1903 1.06706 63.4551 2.08994 63.3753 4.60651C63.349 5.43827 63.3971 6.27226 63.4062 7.10526C63.5011 15.8407 63.5008 15.8407 54.9355 16.2904C43.0248 16.9157 34.3737 26.8319 34.3382 40.1685C34.2738 64.329 34.0644 88.4939 34.4396 112.649C34.635 125.231 33.7089 137.043 22.4141 145.666C32.6632 154.173 34.5643 165.056 34.4589 177.053C34.257 200.029 34.7851 223.01 34.7299 245.989C34.7195 250.336 34.5823 254.603 35.6067 258.85C38.3487 270.219 46.0151 276.455 57.7056 276.801C60.8115 276.892 64.3785 276.208 64.9833 281.305Z" fill="#73f9ebf0"/>
<path d="M401.606 241.91C401.621 220.436 401.639 199.449 401.646 178.463C401.652 160.105 401.901 159.382 413.097 145.97C412.57 144.289 410.956 143.529 409.867 142.321C404.66 136.543 401.607 129.927 401.615 122.011C401.642 95.1956 401.425 68.3778 401.695 41.5648C401.872 24.0246 390.564 15.1819 377.588 16.2673C373.994 16.5679 372.644 15.0677 372.564 11.3585C372.328 0.337854 372.448 0.0939278 383.418 1.21551C402.68 3.18499 416.829 19.2205 417.056 40.067C417.343 66.3804 417.188 92.6985 417.24 119.015C417.245 121.836 417.134 124.654 418.13 127.406C420.178 133.067 423.608 136.979 430.086 136.88C433.605 136.827 434.973 138.284 434.418 141.718C434.287 142.532 434.244 143.401 434.374 144.21C435.258 149.701 434.206 152.894 427.68 154.589C419.554 156.699 417.138 164.012 417.134 171.966C417.123 197.783 417.188 223.6 417.077 249.416C417.01 265.185 411.768 278.432 397.736 287.097C390.643 291.477 382.809 292.456 374.678 292.192C372.042 292.106 370.598 291.06 370.733 288.282C370.765 287.618 370.718 286.95 370.714 286.284C370.663 277.611 370.663 277.611 379.236 276.869C391.548 275.804 400.093 267.146 400.917 254.854C401.194 250.705 401.378 246.55 401.606 241.91Z" fill="#73f9ebf0"/>
<path d="M268.607 117.696C273.629 106.949 278.583 96.5872 283.337 86.1349C284.942 82.6074 287.109 81.4784 290.82 82.758C294.272 83.9483 297.816 84.924 301.38 85.7202C305.1 86.5512 305.246 88.2321 303.769 91.4335C294.703 111.076 285.855 130.819 276.865 150.497C273.499 157.863 272.967 158.008 265.065 155.366C253.157 151.383 253.116 151.364 258.355 139.78C261.647 132.501 265.087 125.288 268.607 117.696Z" fill="#73f9ebf0"/>
<path d="M138.354 292.305C135.883 292.303 134.212 292.742 134.399 295.328C134.571 297.701 136.34 297.682 138.041 297.696C140.371 297.714 142.703 297.743 145.031 297.671C147.43 297.597 148.818 298.539 148.969 301.063C149.118 303.567 147.906 304.859 145.49 304.901C140.499 304.989 135.506 305.017 130.515 304.969C128.16 304.946 126.79 303.683 126.78 301.234C126.748 293.412 126.756 285.589 126.714 277.767C126.7 275.284 127.938 274.045 130.34 274.019C137.653 273.94 144.966 273.879 152.279 273.893C154.598 273.898 155.709 275.359 156.439 277.498C158.153 282.517 160.088 287.46 163.167 292.653C165.074 287.887 167.09 283.161 168.855 278.343C170.242 274.554 172.465 272.935 177.011 274.711C176.457 279.6 174.233 284.056 172.682 288.655C171.357 292.586 169.443 296.314 167.934 300.189C166.887 302.877 165.61 304.651 162.211 304.59C158.8 304.529 157.677 302.726 156.723 299.962C154.178 292.586 151.434 285.279 148.54 277.315C147.354 281.446 144.4 281.019 141.652 281.084C139.989 281.123 138.325 281.164 136.666 281.27C135.337 281.354 134.45 282.037 134.443 283.452C134.436 284.872 135.308 285.545 136.654 285.615C137.982 285.685 139.314 285.701 140.645 285.717C142.917 285.744 145.112 285.834 145.179 288.963C145.247 292.134 143.071 292.266 140.779 292.274C140.113 292.276 139.447 292.288 138.354 292.305Z" fill="#73f9ebf0"/>
<path d="M180.561 230.902C184.18 229.921 186.173 231.583 188.119 233.959C191.637 238.255 194.728 242.958 199.864 247.425C199.864 242.441 199.947 238.509 199.837 234.582C199.756 231.719 200.254 229.743 203.802 229.714C207.396 229.683 208.381 231.452 208.329 234.672C208.211 241.992 208.266 249.313 208.217 256.634C208.204 258.625 208.347 260.813 206.134 261.844C203.625 263.013 201.44 261.798 199.824 260.091C196.511 256.593 193.477 252.833 190.294 249.21C189.657 248.486 188.87 247.893 187.674 246.804C186.421 251.162 187.398 255.124 187.006 258.969C186.751 261.466 185.458 262.377 183.047 262.364C180.72 262.35 178.978 261.631 178.97 259.1C178.941 250.291 179.034 241.482 179.158 232.674C179.165 232.126 179.831 231.587 180.561 230.902Z" fill="#73f9ebf0"/>
<path d="M139.57 244.301C135.376 250.337 137.026 255.269 141.311 259.913C141.583 260.208 141.503 260.829 141.584 261.283C135.355 263.374 133.6 262.773 130.588 257.578C130.171 256.859 129.716 256.156 129.367 255.404C128.397 253.313 126.934 252.422 124.564 252.978C122.037 253.571 122.24 255.511 122.281 257.303C122.351 260.358 121.736 262.479 117.93 262.338C114.371 262.207 113.905 260.011 113.976 257.301C114.183 249.333 114.484 241.367 114.659 233.398C114.717 230.768 116.174 229.924 118.474 229.889C121.633 229.841 124.797 229.697 127.951 229.806C136.672 230.106 140.637 234.93 139.57 244.301ZM125.532 245.632C126.024 245.611 126.518 245.605 127.009 245.566C129.783 245.347 131.78 244.271 131.802 241.108C131.817 239.081 131.108 237.41 128.853 237.302C126.692 237.198 123.676 235.97 122.753 238.73C122.007 240.962 120.641 244.347 125.532 245.632Z" fill="#73f9ebf0"/>
<path d="M315.282 242.024C315.232 247.349 315.252 252.18 315.093 257.004C315.03 258.931 315.214 261.229 312.638 261.909C310.114 262.575 308.093 261.737 306.545 259.602C304.199 256.368 301.812 253.163 299.381 249.993C298.808 249.246 298.213 248.33 296.011 248.587C296.011 251.691 296.103 254.947 295.982 258.194C295.889 260.678 294.715 262.202 291.917 262.158C288.971 262.112 288.043 260.261 288.278 257.894C289.025 250.391 287.331 242.939 287.991 235.454C288.146 233.694 287.73 231.532 290.058 230.871C292.299 230.236 294.214 230.802 295.808 232.761C299.212 236.944 301.557 242.075 306.544 245.347C308.713 241.815 307.474 238.264 307.783 234.929C308.003 232.564 308.298 230.707 311.357 230.648C314.569 230.587 315.362 232.282 315.278 235.032C315.212 237.195 315.275 239.362 315.282 242.024Z" fill="#73f9ebf0"/>
<path d="M330.469 230.464C341.17 231.04 347.243 235.62 348.254 243.597C349.617 254.342 342.898 262.215 331.972 262.24C317.74 262.271 320.022 263.359 319.723 250.407C319.622 246.077 319.702 241.743 319.697 237.41C319.689 230.554 320.091 230.147 327.047 230.18C328.044 230.184 329.039 230.334 330.469 230.464ZM328.057 250.218C328.323 252.509 327.314 255.517 331.347 255.574C335.894 255.638 340.063 252.431 340.651 248.264C341.428 242.746 338.691 238.574 333.534 237.491C329.984 236.745 327.633 237.517 327.941 241.857C328.117 244.328 328.029 246.817 328.057 250.218Z" fill="#73f9ebf0"/>
<path d="M334.268 275.306C340.349 279.701 342.269 284.983 338.526 289.917C335.136 294.387 335.96 297.505 339.185 301.071C339.822 301.775 340.473 302.617 340.134 304.082C336.895 305.621 333.962 305.255 331.496 302.259C330.335 300.848 329.234 299.388 328.083 297.969C327.01 296.645 325.868 295.365 323.9 296.035C322.083 296.654 322.129 298.294 322.096 299.771C322.031 302.645 321.212 304.505 317.773 304.439C314.136 304.371 313.866 302.078 313.861 299.411C313.847 292.595 313.916 285.778 313.815 278.964C313.765 275.589 315.291 274.126 318.585 274.081C323.727 274.01 328.895 273.415 334.268 275.306ZM325.581 288.725C326.404 288.702 327.239 288.761 328.048 288.642C330.319 288.308 332.351 287.436 332.432 284.806C332.502 282.561 330.619 281.591 328.793 281.501C326.555 281.391 323.448 279.944 322.464 283.298C321.89 285.259 321.208 288.12 325.581 288.725Z" fill="#73f9ebf0"/>
<path d="M227.6 280.919C232.372 273.402 244.064 270.897 250.977 275.585C258.87 280.938 260.432 291.511 254.472 299.252C249.293 305.979 237.965 307.19 231.151 301.745C225.56 297.278 224.226 289.914 227.6 280.919ZM248.537 294.842C249.908 293.169 249.84 291.15 249.876 289.167C249.978 283.445 248.061 280.581 243.619 280.152C239.607 279.765 235.985 280.324 234.289 284.819C232.749 288.903 233.595 294.795 236.676 296.661C240.565 299.015 244.545 298.748 248.537 294.842Z" fill="#73f9ebf0"/>
<path d="M115.532 274.969C122.223 278.039 124.175 283.477 123.897 289.849C123.591 296.851 120.004 301.681 113.231 303.926C112.13 304.291 111.003 304.604 109.866 304.827C97.5319 307.25 95.7442 305.834 95.6406 293.522C95.5987 288.541 95.7301 283.556 95.5823 278.579C95.4806 275.157 96.9699 273.749 100.312 273.794C105.282 273.861 110.282 273.362 115.532 274.969ZM103.696 296.615C108.131 298.801 112.195 297.976 114.453 294.433C116.838 290.69 116.311 284.458 113.273 282.029C110.764 280.023 107.672 279.528 104.82 280.602C102.253 281.568 103.441 284.369 103.35 286.376C103.209 289.511 103.395 292.661 103.696 296.615Z" fill="#73f9ebf0"/>
<path d="M145.068 254.605C140.56 241.9 146.37 231.246 157.778 230.634C166.936 230.143 173.098 234.791 175.067 243.674C176.774 251.378 173.306 258.629 166.584 261.411C158.454 264.776 149.93 262.197 145.068 254.605ZM151.349 248.942C152.206 253.945 155.577 255.805 160.218 255.721C164.244 255.649 166.611 253.184 167.533 249.472C168.683 244.839 167.376 240.864 163.282 238.246C159.921 236.097 156.653 236.879 153.735 239.415C151.014 241.781 151.172 244.96 151.349 248.942Z" fill="#73f9ebf0"/>
<path d="M273.427 249.028C270.902 249.294 270.154 250.554 270.431 252.53C270.712 254.533 272.25 254.641 273.805 254.682C276.136 254.743 278.469 254.769 280.799 254.865C283.755 254.987 285.498 256.462 285.533 259.513C285.574 263.051 282.814 262.215 280.834 262.266C276.338 262.383 271.836 262.24 267.341 262.366C264.251 262.454 262.71 261.348 262.746 258.054C262.834 250.226 262.827 242.394 262.706 234.566C262.657 231.326 264.185 230.012 267.212 230.012C272.042 230.013 276.873 230.013 281.704 230.039C283.812 230.05 285.235 230.821 285.205 233.247C285.176 235.557 284.397 237.156 281.804 237.214C278.973 237.277 276.141 237.291 273.31 237.365C271.823 237.404 270.608 238.021 270.554 239.643C270.493 241.456 271.92 241.69 273.328 241.739C275.159 241.802 276.993 241.804 278.823 241.885C281.007 241.982 282.118 243.086 282.19 245.35C282.265 247.752 280.931 248.608 278.835 248.75C277.174 248.862 275.508 248.907 273.427 249.028Z" fill="#73f9ebf0"/>
<path d="M180.831 304.869C178.672 304.144 178.533 302.707 178.482 301.126C178.221 293.148 179.246 285.155 178.158 277.183C177.852 274.939 178.968 273.721 181.294 273.732C186.125 273.756 190.955 273.797 195.785 273.791C198.29 273.787 199.352 274.985 199.366 277.476C199.38 279.819 198.201 280.811 196.056 280.927C193.728 281.052 191.395 281.086 189.066 281.197C187.586 281.268 186.423 281.816 186.444 283.536C186.466 285.294 187.716 285.697 189.166 285.76C190.663 285.825 192.162 285.85 193.661 285.899C195.841 285.971 197.015 287.017 197.129 289.278C197.246 291.621 196.037 292.615 193.881 292.774C193.051 292.836 192.207 292.782 191.388 292.905C189.421 293.199 186.379 292.258 186.544 295.602C186.705 298.842 189.723 297.7 191.674 297.99C193.151 298.209 194.656 298.248 196.15 298.346C198.594 298.508 199.775 299.91 199.718 302.249C199.654 304.881 197.51 304.885 195.723 304.923C190.896 305.024 186.066 304.963 180.831 304.869Z" fill="#73f9ebf0"/>
<path d="M269.68 296.476C269.258 298.043 268.971 299.353 268.978 300.661C268.992 303.278 268.124 304.703 265.185 304.574C262.351 304.45 260.953 303.41 260.888 300.402C260.725 292.904 261.322 285.446 261.756 277.975C261.911 275.312 263.492 274.677 265.764 274.689C269.758 274.712 273.754 274.61 277.746 274.704C283.099 274.83 285.654 277.05 286.241 281.865C287.136 289.2 284.919 294.174 279.814 295.284C276.61 295.981 273.243 295.933 269.68 296.476ZM277.377 288.469C279.588 287.285 280.093 285.437 278.715 283.497C276.266 280.049 272.92 281.496 269.807 281.993C268.703 288.852 268.954 289.086 277.377 288.469Z" fill="#73f9ebf0"/>
<path d="M305.41 297.507C308.392 297.231 311.013 296.823 311.221 300.658C311.428 304.469 308.875 304.402 306.245 304.381C302.083 304.347 297.915 304.228 293.76 304.406C290.342 304.553 288.891 303.165 288.925 299.766C288.994 292.775 288.993 285.782 288.87 278.792C288.818 275.873 289.963 274.451 292.903 274.416C297.387 274.362 301.871 274.203 306.355 274.164C308.947 274.142 310.306 275.324 310.277 278.129C310.248 280.989 308.524 281.313 306.324 281.312C304.16 281.311 301.995 281.355 299.834 281.452C298.358 281.517 297.184 282.066 297.329 283.834C297.452 285.327 298.614 285.525 299.819 285.766C302.579 286.317 307.292 284.427 306.859 289.53C306.444 294.422 301.789 291.511 299.138 292.414C298.534 292.62 297.887 292.703 297.26 292.843C296.227 296.034 296.818 297.859 300.5 297.601C301.992 297.496 303.495 297.561 305.41 297.507Z" fill="#73f9ebf0"/>
<path d="M89.6604 236.145C89.028 231.264 91.0728 229.654 95.3304 229.856C99.4831 230.053 103.653 229.878 107.815 229.902C109.953 229.914 111.222 230.812 111.308 233.171C111.399 235.678 110.307 236.914 107.841 236.991C106.01 237.048 104.166 237.246 102.351 237.097C98.2229 236.757 96.9187 238.636 97.8547 242.753C100.373 243.908 103.205 243.658 105.967 243.635C108.534 243.614 109.58 244.995 109.743 247.285C109.928 249.876 108.146 250.231 106.15 250.271C105.318 250.288 104.473 250.423 103.656 250.325C99.3007 249.8 96.9897 251.12 97.8076 256.049C98.1229 257.949 98.0692 260.206 96.4517 261.655C95.1223 262.845 93.2819 262.452 91.6495 262.146C89.6476 261.772 89.7264 260.081 89.7169 258.601C89.6698 251.276 89.6741 243.95 89.6604 236.145Z" fill="#73f9ebf0"/>
<path d="M215.642 236.43C213.573 235.292 211.406 234.616 211.92 231.984C212.483 229.105 214.927 229.862 216.764 229.83C221.583 229.744 226.405 229.82 231.225 229.874C233.431 229.898 235.195 230.51 235.175 233.229C235.154 236.071 233.186 236.548 231.084 236.281C225.935 235.625 224.907 238.213 225.157 242.702C225.452 248.005 225.128 253.339 225.204 258.657C225.242 261.369 223.979 262.715 221.396 262.811C218.671 262.912 217.601 261.411 217.599 258.758C217.597 253.944 217.456 249.13 217.34 244.317C217.277 241.69 217.561 238.992 215.642 236.43Z" fill="#73f9ebf0"/>
<path d="M202.66 302.647C202.725 294.629 204.144 287.041 202.965 279.357C202.552 276.668 202.212 273.33 206.684 273.305C210.655 273.282 211.16 275.827 211.095 278.998C211.009 283.161 211.411 287.355 211.032 291.484C210.548 296.764 212.846 298.338 217.698 297.751C219.662 297.513 221.689 297.745 223.685 297.827C225.301 297.893 226.033 298.87 226.099 300.421C226.158 301.795 226.094 303.672 224.6 303.712C217.307 303.91 209.916 306.323 202.66 302.647Z" fill="#73f9ebf0"/>
<path d="M243.173 254.966C241.237 254.823 239.727 254.844 238.297 254.516C236.267 254.051 236.037 252.353 236.128 250.615C236.22 248.88 237.138 247.819 238.914 247.801C243.035 247.759 247.156 247.797 251.277 247.806C253.963 247.813 254.481 249.621 254.568 251.783C254.666 254.248 253.043 254.862 251.053 254.926C248.582 255.006 246.108 254.964 243.173 254.966Z" fill="#73f9ebf0"/>
</svg>
